<?xml version="1.0" encoding="utf-8" standalone="yes"?>
<!DOCTYPE svg PUBLIC "-//W3C//DTD SVG 1.1//EN" "http://www.w3.org/Graphics/SVG/1.1/DTD/svg11.dtd">
<svg xmlns="http://www.w3.org/2000/svg" xmlns:xlink="http://www.w3.org/1999/xlink" xmlns:dc="http://purl.org/dc/elements/1.1/" xmlns:cc="http://web.resource.org/cc/" xmlns:rdf="http://www.w3.org/1999/02/22-rdf-syntax-ns#" xmlns:sodipodi="http://sodipodi.sourceforge.net/DTD/sodipodi-0.dtd" xmlns:inkscape="http://www.inkscape.org/namespaces/inkscape" version="1.1" baseProfile="full" width="100px" height="100px" viewBox="0 0 100 100" preserveAspectRatio="xMidYMid meet" id="svg_document" style="zoom: 4;"><!-- Created with macSVG - https://macsvg.org/ - https://github.com/dsward2/macsvg/ --><title id="svg_document_title">Untitled.svg</title><defs id="svg_document_defs"></defs><g id="main_group"><line stroke="#000000" y1="5.875px" id="line1" x1="23px" stroke-width="3px" y2="89.875px" x2="23px" transform="" visibility="hidden"></line><line stroke="#000000" y1="4px" stroke-width="3px" x1="31.75px" id="line2" y2="88px" x2="31.75px" transform="rotate(90 48.625 46.125)" visibility="hidden"></line><line stroke="#000000" y1="0px" stroke-width="3px" x1="50px" id="line3" y2="84px" x2="50px" transform="" visibility="hidden"></line><line stroke="#000000" y1="5px" stroke-width="3px" x1="87.75px" id="line4" y2="89px" x2="87.75px" transform="rotate(90 48.625 46.125)" visibility="hidden"></line></g><rect stroke="lightpink" x="26px" height="10px" y="16px" id="rect1" stroke-width="3px" width="50px" fill="lightpink" transform="rotate(10 51 21)"></rect><rect stroke="lightpink" height="5.5px" x="26px" y="76.5px" id="rect2" stroke-width="3px" width="50px" fill="lightpink" transform="rotate(90 51 57)"></rect><rect stroke="lightpink" x="26px" height="5.5px" y="62px" stroke-width="3px" id="rect3" width="50px" fill="lightpink" transform="rotate(90 51 57)"></rect><rect stroke="lightpink" x="26px" height="5.5px" y="32px" stroke-width="3px" id="rect4" width="50px" fill="lightpink" transform="rotate(90 51 57)"></rect><rect stroke="lightpink" x="26px" height="3px" y="30.625px" stroke-width="3px" id="rect5" width="50px" fill="lightpink" transform=""></rect><rect stroke="lightpink" x="26px" height="3px" y="80.375px" stroke-width="3px" id="rect6" width="50px" fill="lightpink" transform=""></rect><rect stroke="lightpink" x="26px" height="5.5px" y="47px" stroke-width="3px" width="50px" fill="lightpink" transform="rotate(90 51 57)" id="rect7"></rect></svg>
